<svg xmlns="http://www.w3.org/2000/svg" width="32" height="32" viewBox="0 0 32 32">
  <style>
    .st0{fill:#4A6FA5;}
    .st1{fill:#FF7E67;}
    .st2{fill:#FFFFFF;}
  </style>
  <circle class="st0" cx="16" cy="16" r="15"/>
  <g>
    <path class="st1" d="M10.5,12c-1.1,0-2,0.9-2,2v8c0,1.1,0.9,2,2,2h11c1.1,0,2-0.9,2-2v-8c0-1.1-0.9-2-2-2H10.5z"/>
    <path class="st2" d="M16,19c-1.7,0-3-1.3-3-3s1.3-3,3-3s3,1.3,3,3S17.7,19,16,19z"/>
    <circle class="st0" cx="16" cy="16" r="1.5"/>
    <circle class="st2" cx="20.5" cy="11" r="1"/>
    <circle class="st2" cx="11.5" cy="11" r="1"/>
    <circle class="st2" cx="11.5" cy="21" r="1"/>
    <circle class="st2" cx="20.5" cy="21" r="1"/>
  </g>
</svg> 