<svg xmlns="http://www.w3.org/2000/svg" width="128" height="128" viewBox="0 0 128 128">
  <style>
    .st0{fill:#4A6FA5;}
    .st1{fill:#FF7E67;}
    .st2{fill:#FFFFFF;}
  </style>
  <circle class="st0" cx="64" cy="64" r="60"/>
  <g>
    <path class="st1" d="M42,48c-4.4,0-8,3.6-8,8v32c0,4.4,3.6,8,8,8h44c4.4,0,8-3.6,8-8V56c0-4.4-3.6-8-8-8H42z"/>
    <path class="st2" d="M64,76c-6.6,0-12-5.4-12-12s5.4-12,12-12s12,5.4,12,12S70.6,76,64,76z"/>
    <circle class="st0" cx="64" cy="64" r="6"/>
    <path class="st2" d="M86,44c0,2.2-1.8,4-4,4s-4-1.8-4-4s1.8-4,4-4S86,41.8,86,44z"/>
    <path class="st2" d="M50,44c0,2.2-1.8,4-4,4s-4-1.8-4-4s1.8-4,4-4S50,41.8,50,44z"/>
    <path class="st2" d="M50,84c0,2.2-1.8,4-4,4s-4-1.8-4-4s1.8-4,4-4S50,81.8,50,84z"/>
    <path class="st2" d="M86,84c0,2.2-1.8,4-4,4s-4-1.8-4-4s1.8-4,4-4S86,81.8,86,84z"/>
  </g>
</svg> 